<?xml version="1.0" standalone="no"?>
<!DOCTYPE svg PUBLIC "-//W3C//DTD SVG 20010904//EN"
 "http://www.w3.org/TR/2001/REC-SVG-20010904/DTD/svg10.dtd">
<svg version="1.0" xmlns="http://www.w3.org/2000/svg"
 width="996.000000pt" height="610.000000pt" viewBox="0 0 996.000000 610.000000"
 preserveAspectRatio="xMidYMid meet">
<metadata>
Created by potrace 1.16, written by Peter Selinger 2001-2019
</metadata>
<g transform="translate(0.000000,610.000000) scale(0.100000,-0.100000)"
fill="#000000" stroke="none">
<path d="M2264 4246 c-524 -138 -1018 -478 -1291 -888 -72 -108 -138 -249
-155 -331 -10 -47 -9 -58 8 -92 12 -25 33 -46 57 -58 36 -19 40 -19 83 -2 61
23 136 95 344 330 239 270 287 321 294 315 3 -3 -19 -48 -49 -100 -59 -102
-115 -235 -115 -272 0 -29 21 -61 60 -88 l29 -21 53 27 c94 48 199 117 397
262 107 79 203 148 214 153 11 6 -22 -36 -73 -92 -155 -176 -234 -313 -167
-294 35 11 122 70 247 169 261 208 274 213 119 48 -105 -110 -159 -183 -159
-213 0 -56 77 -46 203 28 43 25 80 43 83 40 3 -3 -7 -25 -24 -49 -40 -59 -62
-104 -55 -112 15 -15 69 -4 122 24 55 30 116 77 301 233 51 43 94 76 97 73 3
-2 -11 -28 -31 -58 -41 -60 -45 -84 -16 -93 27 -8 73 18 155 88 93 80 137 99
222 95 l68 -3 -55 -41 c-75 -56 -245 -213 -292 -270 -41 -50 -48 -83 -21 -109
36 -37 140 8 393 171 196 127 185 120 175 103 -5 -8 -23 -34 -40 -59 -76 -107
-81 -150 -17 -150 52 0 157 53 276 139 55 39 101 69 104 67 2 -3 -12 -26 -32
-52 -20 -25 -33 -51 -30 -56 4 -6 23 -8 43 -5 38 5 41 6 301 139 91 46 190 90
220 97 30 7 150 21 265 32 288 26 351 35 495 70 175 41 270 70 270 82 0 15
-97 2 -253 -33 -180 -40 -292 -56 -527 -75 -107 -9 -224 -23 -260 -31 -83 -19
-196 -74 -334 -164 -99 -63 -156 -86 -156 -61 0 25 273 257 415 353 53 36 81
62 83 76 2 12 -2 22 -8 22 -15 0 -127 -77 -346 -236 -427 -312 -582 -392 -495
-255 63 98 213 222 414 341 96 58 147 127 63 87 -40 -19 -412 -246 -645 -395
-183 -116 -291 -172 -334 -172 l-29 0 49 57 c111 130 338 311 492 393 110 58
135 80 113 102 -10 10 -31 2 -105 -35 -115 -60 -179 -77 -289 -77 l-87 0 -87
-81 c-131 -122 -164 -138 -125 -62 25 49 89 130 206 258 214 234 465 573 465
627 0 38 -36 -1 -145 -153 -143 -201 -252 -328 -454 -529 -268 -267 -531 -475
-531 -422 0 39 198 238 363 365 204 156 218 168 224 183 19 51 -32 20 -269
-163 -324 -249 -538 -380 -538 -329 0 38 304 360 428 452 39 30 72 59 72 64 0
19 -21 20 -52 4 -101 -52 -415 -284 -515 -380 -65 -62 -139 -112 -150 -100 -8
8 18 44 129 178 125 151 239 264 341 341 71 54 96 87 64 87 -17 0 -106 -61
-323 -222 -262 -194 -462 -336 -534 -378 -125 -75 -198 -76 -187 -4 9 52 65
183 122 285 94 166 198 302 383 503 116 126 153 176 130 176 -15 0 -136 -122
-309 -310 -63 -68 -182 -197 -265 -286 -84 -89 -213 -232 -288 -318 -227 -259
-284 -305 -351 -287 -138 36 96 489 386 747 321 287 808 531 1120 560 54 5 74
3 113 -15 56 -24 86 -27 86 -7 0 18 -16 29 -67 49 -82 32 -137 30 -279 -7z"/>
<path d="M7235 4004 c-93 -32 -344 -157 -475 -236 -58 -35 -184 -120 -280
-189 -228 -164 -251 -179 -272 -179 -44 0 -9 45 254 323 175 185 197 212 180
229 -16 16 -72 -11 -211 -103 -261 -171 -681 -522 -681 -569 0 -5 9 -10 21
-10 12 0 51 30 97 78 132 132 523 440 670 526 37 22 -6 -29 -169 -199 -99
-104 -192 -209 -206 -232 -49 -84 -10 -116 82 -67 28 14 154 97 280 184 306
210 470 304 671 384 90 35 134 44 134 27 0 -32 -122 -152 -320 -313 -203 -164
-262 -198 -591 -339 -391 -166 -1123 -548 -1054 -549 11 0 207 94 435 209 426
214 578 286 586 278 14 -13 -513 -302 -744 -407 -145 -66 -292 -120 -328 -120
-43 0 -94 -27 -94 -49 0 -28 28 -27 116 3 241 82 726 323 1008 501 56 35 128
81 161 101 128 80 413 199 595 248 116 31 104 19 -65 -66 -219 -110 -343 -192
-332 -221 6 -15 11 -15 59 -1 29 9 143 54 253 101 347 149 532 215 687 247
149 31 189 18 202 -63 19 -124 128 -130 614 -37 330 64 339 66 298 77 -37 10
-143 -3 -391 -48 -159 -29 -226 -36 -330 -37 l-130 -1 -13 45 c-36 120 -56
136 -167 127 -127 -10 -494 -141 -802 -286 -155 -73 -198 -87 -153 -50 39 33
514 264 625 304 132 47 175 66 175 77 0 4 -8 8 -19 8 -23 0 -357 -93 -553
-154 -209 -65 -214 -63 -67 38 240 166 415 365 369 421 -17 20 -42 18 -125
-11z"/>
</g>
</svg>
