<svg width="476" height="220" viewBox="0 0 476 220" fill="none" xmlns="http://www.w3.org/2000/svg">
<path d="M2.5 201.5C6.66667 205.667 19.1 214.5 35.5 216.5C56 219 74 207.5 91 194C104.6 183.2 126 159.5 135 149C131 156 123.8 172.1 127 180.5C131 191 145 184 157.5 180.5C170 177 182 170 191 163C198.2 157.4 216.667 143 225 136.5C213.333 145.667 191.274 163.902 191 165C190.5 167 192.793 168.03 200 167C210.5 165.5 210.5 166 257 141.5C303.706 114.787 389.728 59.7631 393.5 57.5C398.996 54.2023 440.713 25.4802 466 7.99691M466 7.99691C468.318 6.39406 470.498 4.88567 472.5 3.5L466 7.99691Z" stroke="black" stroke-width="6" stroke-linejoin="round"/>
</svg>
