<?xml version="1.0" standalone="yes"?>
<svg xmlns="http://www.w3.org/2000/svg" width="2079" height="960">
<path style="fill:#ffffff; stroke:none;" d="M0 0L0 960L2079 960L2079 0L0 0z M673.667 303.333C673.222 303.778 674.278 303.722 674.333 303.667C674.778 303.222 673.722 303.278 673.667 303.333z"/>
<path style="fill:#101010; stroke:none;" d="M441 559C446.121 558.111 445.759 554.501 446.427 550 C447.424 543.292 448.73 536.579 450.375 530C457.525 501.407 472.36 475.081 487.4 450C520.189 395.321 564.597 344.567 626 322.053C644.014 315.448 662.935 311.894 682 310.171C687.447 309.678 693.627 310.663 699 311.615C704.176 312.532 709.373 313.776 714 316.349C738.741 330.103 735.546 365.09 732.714 389C726.099 444.855 710.033 498.57 700.92 554C697.969 571.948 696 589.823 696 608C696 618.263 696.027 628.147 699.356 638C706.855 660.198 731.811 662.904 752 660.282C785.524 655.927 814.468 638.881 839 616.025C846.965 608.603 856.921 600.791 862 591C867.424 594.265 872.823 597.82 879 599.51C921.169 611.05 955.42 581.58 983 554C982.442 556.343 982.015 558.577 982.03 561.002C982.104 573.1 994.829 573.157 1004 571.536C1013.39 569.877 1022.51 565.872 1031 561.63C1035.6 559.329 1040.06 555.759 1045 554.244C1049.08 552.992 1053.77 554.323 1058 553.816C1064.71 553.01 1071.81 550.335 1078 547.716C1101.04 537.974 1122.42 524.95 1144 512.424C1189.94 485.76 1234.18 456.497 1279 428.053C1294.42 418.267 1310.27 408.649 1325 397.845C1327.96 395.677 1339.61 388.564 1335.93 383.623C1334.09 381.153 1330.69 383.749 1329 384.965C1323.68 388.789 1318.46 392.695 1313 396.333C1289.53 411.987 1265.91 427.604 1242 442.576C1218.68 457.174 1195.28 471.657 1172 486.319C1136.43 508.726 1099.16 532.933 1059 546C1067.56 538.142 1077.74 532.199 1085.98 523.961C1087.91 522.037 1093.64 515.851 1088.68 513.797C1086.04 512.704 1083.1 514.652 1081 516.058C1074.94 520.122 1069.52 525.379 1064 530.13C1050.57 541.68 1035.32 551.443 1019 558.421C1012.74 561.1 1005.85 564.085 999 564.812C981.684 566.649 995.522 542.676 998.715 535C999.871 532.222 1002.34 523.635 995.999 525.662C992.113 526.904 990.049 531.98 987.761 535C982.353 542.139 976.323 548.676 970 555C950.373 574.628 924.189 597.094 894 594.815C884.445 594.094 876.574 589.676 868 586C875.516 574.635 884.691 564.333 892.33 553C925.083 504.41 957.179 450.368 971.525 393C975.041 378.939 978.318 363.55 977.985 349C977.839 342.605 976.755 334.939 971.787 330.394C963.87 323.15 951.888 326.458 943 329.695C919.99 338.075 903.461 359.533 890.026 379C870.304 407.577 855.888 439.193 848.113 473C845.261 485.4 842.328 498.214 842.015 511C841.558 529.633 840.981 548.974 846.439 567C848.262 573.02 857.443 583.237 853.797 589C848.245 597.775 838.823 605.717 831 612.421C807.783 632.313 780.444 650.877 749 653.025C738.296 653.756 727.7 654.673 718 648.786C708.92 643.275 705.599 633.96 703.921 624C700.855 605.811 703.666 586.03 706.562 568C711.094 539.784 716.287 511.829 722.884 484C731.269 448.632 740.998 411.574 741 375C741.002 352.317 743.132 328.046 723 312.529C719.714 309.997 715.938 308.042 712 306.749C699.228 302.556 685.2 302.421 672 303.834C647.649 306.441 623.968 312.796 602 323.753C543.725 352.82 504.206 404.313 473.14 460C456.31 490.168 441.726 523.853 441 559z"/>
<path style="fill:#ffffff; stroke:none;" d="M861 578C866.583 575.341 869.742 569.842 873.373 565C880.464 555.546 887.113 545.83 893.667 536C921.524 494.213 946.088 448.095 960.974 400C965.688 384.771 969 367.945 969 352C969 346.523 970.349 338.118 963.956 335.603C956.732 332.762 947.389 336.565 941 339.759C923.329 348.595 910.844 364.236 899.579 380C870.126 421.214 850 471.858 850 523C850 541.621 850.425 561.951 861 578z"/>
<path style="fill:#101010; stroke:none;" d="M823 727C835.35 725.149 847.621 717.374 859 712.424 C891.662 698.217 922.711 680.271 954 663.309C1062.05 604.734 1164.1 536.131 1268 470.681C1300.4 450.272 1333.79 430.473 1368 413.248C1377.14 408.646 1386.06 403.823 1395 398.861C1398.92 396.689 1403.47 395.472 1405 391C1390.6 391.337 1375.58 401.463 1363 407.753C1331.81 423.348 1301.89 440.866 1272 458.8C1221.87 488.88 1173.36 521.641 1124 552.947C1069.77 587.34 1014.82 620.278 959 652C925.074 671.279 890.542 689.556 856 707.68C848.242 711.75 839.986 715.089 832 718.694C827.501 720.725 823.856 721.74 823 727z"/>
</svg>
